<?xml version="1.0" encoding="utf-8"?>
<!-- Generator: Adobe Illustrator 16.0.0, SVG Export Plug-In . SVG Version: 6.00 Build 0)  -->
<!DOCTYPE svg PUBLIC "-//W3C//DTD SVG 1.1//EN" "http://www.w3.org/Graphics/SVG/1.1/DTD/svg11.dtd">
<svg version="1.1" id="Capa_1" xmlns="http://www.w3.org/2000/svg" xmlns:xlink="http://www.w3.org/1999/xlink" x="0px" y="0px"
	 width="135.827px" height="25.434px" viewBox="0 0 135.827 25.434" enable-background="new 0 0 135.827 25.434"
	 xml:space="preserve">
<g>
	<g>
		<path fill="#FFFFFF" d="M41.562,9.682c1.094-0.185,2.633-0.326,4.8-0.326c2.19,0,3.774,0.42,4.823,1.282
			c1.002,0.768,1.654,2.073,1.654,3.61c0,1.562-0.489,2.867-1.421,3.729c-1.211,1.118-3.03,1.653-5.125,1.653
			c-0.468,0-0.886-0.023-1.212-0.093v5.64h-3.519V9.682z M45.081,16.812c0.302,0.071,0.675,0.095,1.188,0.095
			c1.886,0,3.052-0.957,3.052-2.541c0-1.443-0.979-2.306-2.771-2.306c-0.725,0-1.213,0.046-1.469,0.116V16.812z"/>
		<path fill="#FFFFFF" d="M54.517,9.704c1.143-0.208,2.819-0.348,4.732-0.348c2.329,0,3.959,0.348,5.079,1.258
			c0.955,0.746,1.467,1.841,1.467,3.286c0,1.979-1.42,3.354-2.773,3.844v0.071c1.096,0.442,1.702,1.466,2.097,2.911
			c0.489,1.795,0.955,3.847,1.258,4.451h-3.635c-0.231-0.442-0.628-1.726-1.071-3.659c-0.442-1.98-1.118-2.493-2.586-2.517h-1.048
			v6.176h-3.519V9.704z M58.036,16.438h1.397c1.771,0,2.82-0.886,2.82-2.259c0-1.422-0.978-2.167-2.609-2.167
			c-0.863,0-1.352,0.046-1.608,0.116V16.438z"/>
		<path fill="#FFFFFF" d="M74.322,25.434c-4.637,0-7.387-3.517-7.387-7.991c0-4.708,3.029-8.227,7.644-8.227
			c4.823,0,7.456,3.61,7.456,7.945c0,5.175-3.099,8.272-7.69,8.272H74.322z M74.484,22.615c2.4,0,3.775-2.262,3.775-5.338
			c0-2.818-1.328-5.242-3.775-5.242c-2.445,0-3.821,2.377-3.821,5.312c0,2.96,1.423,5.268,3.799,5.268H74.484z"/>
		<path fill="#FFFFFF" d="M95.292,24.758c-0.63,0.304-2.121,0.676-4.007,0.676c-5.432,0-8.227-3.401-8.227-7.898
			c0-5.36,3.821-8.319,8.576-8.319c1.841,0,3.238,0.373,3.867,0.699l-0.744,2.796c-0.701-0.302-1.701-0.583-2.983-0.583
			c-2.798,0-4.986,1.702-4.986,5.219c0,3.146,1.862,5.128,5.008,5.128c1.096,0,2.261-0.211,2.985-0.515L95.292,24.758z"/>
		<path fill="#FFFFFF" d="M106.404,18.535h-5.777v3.729h6.455v2.913h-9.997V9.472h9.671v2.913h-6.129v3.261h5.777V18.535z"/>
		<path fill="#FFFFFF" d="M109.037,21.543c0.934,0.489,2.426,0.979,3.939,0.979c1.631,0,2.493-0.676,2.493-1.724
			c0-0.957-0.745-1.539-2.633-2.191c-2.608-0.931-4.335-2.378-4.335-4.683c0-2.682,2.261-4.708,5.943-4.708
			c1.794,0,3.074,0.349,4.006,0.792l-0.789,2.842c-0.607-0.302-1.75-0.744-3.264-0.744c-1.537,0-2.284,0.721-2.284,1.515
			c0,1.001,0.862,1.444,2.912,2.237c2.773,1.025,4.056,2.47,4.056,4.707c0,2.633-2.004,4.869-6.315,4.869
			c-1.794,0-3.565-0.49-4.45-0.979L109.037,21.543z"/>
		<path fill="#FFFFFF" d="M121.037,21.543c0.934,0.489,2.424,0.979,3.939,0.979c1.63,0,2.49-0.676,2.49-1.724
			c0-0.957-0.744-1.539-2.631-2.191c-2.61-0.931-4.333-2.378-4.333-4.683c0-2.682,2.259-4.708,5.94-4.708
			c1.793,0,3.076,0.349,4.008,0.792l-0.792,2.842c-0.604-0.302-1.748-0.744-3.262-0.744c-1.538,0-2.284,0.721-2.284,1.515
			c0,1.001,0.863,1.444,2.912,2.237c2.773,1.025,4.055,2.47,4.055,4.707c0,2.633-2.004,4.869-6.314,4.869
			c-1.793,0-3.564-0.49-4.451-0.979L121.037,21.543z"/>
	</g>
	<g>
		<path fill="#FFFFFF" d="M41.616,6.547c0.496,0.259,1.289,0.52,2.092,0.52c0.867,0,1.324-0.359,1.324-0.917
			c0-0.506-0.395-0.816-1.398-1.163c-1.387-0.497-2.302-1.263-2.302-2.488c0-1.424,1.199-2.5,3.155-2.5
			c0.953,0,1.633,0.187,2.129,0.422L46.195,1.93c-0.321-0.161-0.929-0.396-1.732-0.396c-0.817,0-1.213,0.384-1.213,0.805
			c0,0.533,0.458,0.768,1.547,1.188c1.474,0.543,2.155,1.312,2.155,2.499c0,1.4-1.065,2.588-3.355,2.588
			c-0.953,0-1.893-0.259-2.363-0.52L41.616,6.547z"/>
		<path fill="#FFFFFF" d="M49.279,8.478l-1.98-8.341h2.017l0.632,3.427c0.185,1.003,0.357,2.081,0.494,2.934h0.024
			c0.137-0.916,0.334-1.919,0.544-2.958l0.706-3.403h2.005l0.669,3.515c0.186,0.978,0.321,1.869,0.447,2.797h0.023
			c0.125-0.928,0.31-1.906,0.482-2.909l0.681-3.403h1.919l-2.154,8.341h-2.043L53.04,4.889c-0.16-0.842-0.296-1.622-0.395-2.575
			h-0.026c-0.147,0.941-0.283,1.733-0.482,2.575l-0.792,3.589H49.279z"/>
		<path fill="#FFFFFF" d="M58.611,0.259c0.497-0.099,1.487-0.187,2.439-0.187c1.151,0,1.854,0.114,2.463,0.471
			c0.582,0.309,0.989,0.879,0.989,1.646c0,0.73-0.434,1.41-1.362,1.77v0.024c0.954,0.248,1.658,0.979,1.658,2.054
			c0,0.768-0.346,1.363-0.866,1.771c-0.605,0.482-1.621,0.756-3.279,0.756c-0.928,0-1.621-0.064-2.043-0.124V0.259z M60.481,3.439
			h0.617c1.003,0,1.525-0.407,1.525-1.027c0-0.63-0.482-0.965-1.337-0.965c-0.421,0-0.658,0.024-0.805,0.063V3.439z M60.481,7.141
			c0.185,0.036,0.407,0.036,0.729,0.036c0.854,0,1.61-0.333,1.61-1.212c0-0.842-0.756-1.174-1.697-1.174h-0.643V7.141z"/>
	</g>
	<path fill="#FFFFFF" d="M19.426,15.635l2.079-1.099c-0.007-1.198-0.21-2.348-0.578-3.422l-2.308-0.319
		c-0.172-0.351-0.364-0.688-0.579-1.012l0.882-2.171c-0.748-0.876-1.637-1.629-2.627-2.226L14.32,6.625
		c-0.366-0.164-0.744-0.303-1.133-0.415l-0.719-2.226c-0.559-0.089-1.133-0.136-1.716-0.136c-0.583,0-1.159,0.046-1.717,0.136
		L8.319,6.21C7.928,6.323,7.551,6.462,7.185,6.625L5.21,5.386C4.218,5.983,3.332,6.735,2.58,7.612l0.884,2.171
		c-0.212,0.324-0.409,0.661-0.579,1.012l-2.308,0.319C0.208,12.188,0.006,13.338,0,14.536l2.078,1.099
		c0.045,0.369,0.108,0.73,0.197,1.082l-1.565,1.732c0.423,1.104,1.025,2.125,1.768,3.021l2.301-0.495
		c0.254,0.236,0.521,0.459,0.8,0.666L5.49,23.982c1.015,0.568,2.129,0.979,3.311,1.195l1.441-1.855
		c0.169,0.01,0.338,0.017,0.511,0.017c0.173,0,0.341-0.007,0.51-0.017l1.443,1.855c1.181-0.217,2.294-0.627,3.309-1.195
		l-0.088-2.342c0.28-0.207,0.545-0.43,0.799-0.666l2.301,0.495c0.746-0.896,1.346-1.916,1.771-3.021l-1.566-1.732
		C19.319,16.365,19.384,16.004,19.426,15.635z"/>
	<path fill="#FFFFFF" d="M33.039,19.334l1.104,0.999c-0.16,0.608-0.402,1.181-0.713,1.708l-1.483-0.075
		c-0.298,0.386-0.645,0.731-1.032,1.028l0.075,1.484c-0.531,0.309-1.104,0.548-1.714,0.708L28.28,24.08
		c-0.238,0.031-0.48,0.049-0.728,0.049c-0.246-0.002-0.49-0.021-0.728-0.051l-0.998,1.104c-0.608-0.16-1.182-0.402-1.711-0.713
		l0.08-1.484c-0.387-0.297-0.733-0.643-1.029-1.031l-1.484,0.072c-0.311-0.528-0.55-1.103-0.708-1.711l1.105-0.994
		c-0.03-0.24-0.049-0.482-0.049-0.729s0.02-0.489,0.052-0.728l-1.103-0.998c0.16-0.607,0.401-1.182,0.712-1.71l1.483,0.077
		c0.298-0.388,0.644-0.733,1.031-1.029l-0.073-1.484c0.531-0.309,1.104-0.551,1.711-0.708l0.997,1.106
		c0.238-0.031,0.482-0.05,0.728-0.05c0.248,0.001,0.491,0.02,0.729,0.05l1-1.102c0.607,0.159,1.182,0.401,1.71,0.712l-0.08,1.485
		c0.387,0.296,0.734,0.644,1.029,1.031l1.484-0.074c0.31,0.53,0.551,1.105,0.708,1.713l-1.104,0.996
		c0.032,0.237,0.049,0.48,0.048,0.727C33.09,18.853,33.07,19.096,33.039,19.334z"/>
	<path fill="#FFFFFF" d="M25.755,10.355c0.148-0.09,0.285-0.19,0.414-0.295l1.186,0.244c0.549-0.602,0.931-1.318,1.135-2.083
		l-0.848-0.863c0.036-0.338,0.032-0.678-0.02-1.019l0.798-0.897c-0.118-0.373-0.278-0.74-0.492-1.091
		c-0.212-0.349-0.466-0.659-0.745-0.935L26.02,3.715c-0.279-0.2-0.58-0.359-0.896-0.483l-0.379-1.146
		c-0.774-0.17-1.587-0.158-2.373,0.057l-0.324,1.164c-0.153,0.069-0.304,0.145-0.453,0.235c-0.146,0.089-0.284,0.189-0.414,0.294
		l-1.182-0.245c-0.551,0.602-0.934,1.319-1.137,2.084l0.847,0.861c-0.034,0.337-0.031,0.679,0.021,1.018l-0.798,0.899
		c0.118,0.374,0.279,0.74,0.492,1.088c0.213,0.353,0.466,0.66,0.746,0.937l1.164-0.3c0.279,0.202,0.581,0.361,0.896,0.485
		l0.378,1.146c0.775,0.17,1.589,0.158,2.374-0.056l0.324-1.165C25.457,10.52,25.609,10.444,25.755,10.355z"/>
	<g>
		<path fill="#FFFFFF" d="M134.208,22.188c0.273,0,0.538,0.07,0.797,0.21c0.26,0.139,0.462,0.338,0.607,0.598
			c0.144,0.261,0.215,0.532,0.215,0.813c0,0.278-0.071,0.548-0.213,0.805c-0.143,0.257-0.342,0.458-0.6,0.6
			c-0.256,0.142-0.525,0.214-0.807,0.214c-0.279,0-0.549-0.072-0.805-0.214c-0.257-0.142-0.457-0.343-0.601-0.6
			c-0.142-0.257-0.214-0.526-0.214-0.805c0-0.281,0.072-0.553,0.217-0.813c0.146-0.26,0.348-0.459,0.605-0.598
			C133.671,22.259,133.937,22.188,134.208,22.188z M134.208,22.455c-0.227,0-0.447,0.061-0.664,0.178
			c-0.215,0.116-0.383,0.282-0.505,0.499c-0.121,0.218-0.183,0.442-0.183,0.678c0,0.232,0.062,0.456,0.18,0.671
			c0.12,0.214,0.285,0.379,0.501,0.5c0.216,0.119,0.438,0.18,0.671,0.18c0.234,0,0.459-0.061,0.673-0.18
			c0.215-0.121,0.382-0.286,0.499-0.5c0.12-0.215,0.18-0.438,0.18-0.671c0-0.235-0.061-0.46-0.184-0.678
			c-0.12-0.217-0.288-0.383-0.503-0.499C134.658,22.516,134.435,22.455,134.208,22.455z M133.499,24.704v-1.743h0.599
			c0.204,0,0.354,0.018,0.445,0.049c0.09,0.031,0.164,0.088,0.219,0.168c0.054,0.079,0.082,0.166,0.082,0.258
			c0,0.125-0.047,0.237-0.137,0.33c-0.092,0.094-0.211,0.148-0.361,0.16c0.061,0.024,0.109,0.057,0.148,0.092
			c0.07,0.068,0.156,0.185,0.256,0.346l0.214,0.341h-0.345l-0.154-0.276c-0.121-0.215-0.221-0.35-0.294-0.402
			c-0.05-0.041-0.126-0.062-0.226-0.062h-0.165v0.74H133.499z M133.78,23.723h0.341c0.165,0,0.275-0.023,0.334-0.072
			c0.061-0.049,0.09-0.113,0.09-0.193c0-0.051-0.016-0.096-0.045-0.139c-0.027-0.04-0.066-0.07-0.117-0.09
			c-0.052-0.021-0.145-0.031-0.283-0.031h-0.319V23.723z"/>
	</g>
</g>
</svg>
